<svg xmlns="http://www.w3.org/2000/svg" viewBox="0 0 360 80" role="img" aria-label="HappyCodex">
  <defs>
    <linearGradient id="mark" x1="0" y1="0" x2="1" y2="1">
      <stop offset="0" stop-color="#14b8a6"/>
      <stop offset="1" stop-color="#f97316"/>
    </linearGradient>
  </defs>
  <rect x="4" y="10" width="60" height="60" rx="16" fill="url(#mark)"/>
  <path
    d="M22 40c0-10 7-18 17-18 6 0 11 3 14 8l-8 5c-2-3-4-5-8-5-5 0-9 4-9 10s4 10 9 10c4 0 6-2 8-5l8 5c-3 5-8 8-14 8-10 0-17-8-17-18Z"
    fill="#fff"
  />
  <text
    x="82"
    y="51"
    fill="#111827"
    font-family="Inter, ui-sans-serif, system-ui, -apple-system, BlinkMacSystemFont, Segoe UI, sans-serif"
    font-size="34"
    font-weight="700"
    letter-spacing="0"
  >HappyCodex</text>
</svg>
